<?xml version="1.0" encoding="utf-8"?>
<svg viewBox="0 0 4999 4386" xmlns="http://www.w3.org/2000/svg">
  <g id="surface1" transform="matrix(1, 0, 0, 1, 87.13549, 4.197885)">
    <path style="stroke: none; fill-rule: nonzero; fill: rgb(0, 0, 0); fill-opacity: 1;" d="M 1348.256 4303.107 C 1344.637 4296.205 1359.125 4289.302 1380.858 4285.849 C 1402.59 4283.548 1483.48 4272.043 1560.746 4262.836 C 1875.858 4221.415 2141.469 4108.664 2206.666 3989.006 C 2269.444 3873.949 2302.044 3052.457 2271.859 2379.385 C 2258.58 2082.547 2240.468 1974.393 2189.763 1878.895 C 2129.396 1766.144 1774.444 1293.266 1216.662 579.927 C 1028.321 339.463 995.72 291.14 1012.622 284.232 C 1024.696 280.783 1190.1 276.182 1379.648 276.182 L 1726.15 275.029 L 1729.775 629.398 L 1734.599 983.77 L 1780.478 1071.213 C 1908.458 1319.728 2184.934 1433.636 2531.431 1379.559 C 2706.496 1353.097 2874.315 1231.138 2956.409 1071.213 L 3002.289 983.77 L 3007.118 629.398 L 3010.739 275.029 L 3357.24 276.182 C 3546.793 276.182 3712.193 280.783 3724.266 284.232 C 3741.169 291.14 3708.572 339.463 3520.231 579.927 C 2962.449 1293.266 2607.493 1766.144 2547.13 1878.895 C 2496.421 1974.393 2478.313 2082.547 2465.03 2379.385 C 2434.849 3052.457 2467.445 3873.949 2530.227 3989.006 C 2595.424 4108.664 2861.031 4221.415 3176.143 4262.836 C 3253.413 4272.043 3334.303 4283.548 3356.036 4285.849 C 3377.768 4289.302 3392.252 4296.205 3388.631 4303.107 C 3378.973 4316.913 1357.915 4316.913 1348.256 4303.107 Z M 1348.256 4303.107"/>
    <path style="stroke: none; fill-rule: nonzero; fill: rgb(0, 0, 0); fill-opacity: 1;" d="M 2314.114 1167.858 C 2280.312 1118.382 2331.017 1056.255 2390.179 1074.662 C 2403.458 1078.115 2419.15 1094.221 2427.605 1110.332 C 2448.127 1152.9 2417.946 1195.472 2368.447 1195.472 C 2344.3 1195.472 2326.187 1186.265 2314.114 1167.858 Z M 2314.114 1167.858"/>
    <path style="stroke: none; fill-rule: nonzero; fill: rgb(0, 0, 0); fill-opacity: 1;" d="M 2321.358 923.939 C 2291.177 887.122 2291.177 885.973 2315.324 852.609 C 2352.749 801.98 2454.166 837.65 2434.849 895.176 C 2414.321 957.308 2359.993 971.114 2321.358 923.939 Z M 2321.358 923.939"/>
    <path style="stroke: none; fill-rule: nonzero; fill: rgb(0, 0, 0); fill-opacity: 1;" d="M 2314.114 674.271 C 2299.63 653.559 2298.421 638.606 2306.874 616.745 C 2328.602 563.817 2401.043 561.516 2426.395 613.292 C 2457.786 680.026 2356.374 736.399 2314.114 674.271 Z M 2314.114 674.271"/>
    <path style="stroke: none; fill-rule: nonzero; fill: rgb(0, 0, 0); fill-opacity: 1;" d="M 1873.443 270.428 L 1873.443 33.416 L 2064.199 124.307 L 2253.75 215.202 L 2287.556 187.588 C 2332.227 151.922 2414.321 149.62 2446.922 182.986 C 2458.996 195.643 2475.899 205.999 2485.557 205.999 C 2494.006 205.999 2583.35 166.88 2682.349 119.705 L 2863.446 33.416 L 2863.446 505.143 L 2677.519 413.094 L 2491.592 319.903 L 2446.922 349.814 C 2388.969 386.632 2347.919 386.632 2289.971 349.814 L 2245.297 319.903 L 2134.225 373.98 C 2073.858 403.891 1990.553 445.311 1949.503 467.171 L 1873.443 507.443 Z M 1873.443 270.428"/>
  </g>
</svg>